<svg width="30" height="30" viewBox="0 0 30 30" fill="none" xmlns="http://www.w3.org/2000/svg">
<path fill-rule="evenodd" clip-rule="evenodd" d="M13.9287 2.25C15.1452 2.25 16.1298 3.2637 16.1298 4.4802C16.1298 5.6964 15.1452 6.7101 13.9287 6.7101C12.7122 6.7101 11.6985 5.6964 11.6985 4.4802C11.6985 3.2637 12.7125 2.25 13.9287 2.25ZM14.0736 6.9129C14.9106 6.8868 15.5577 7.4076 15.8982 7.9557L18.2151 11.8077L22.2699 13.5165C23.4282 14.0085 22.878 15.5436 21.5748 15.1962C21.5282 15.1645 21.4798 15.1355 21.4299 15.1092L18.7074 21.1332C18.7074 21.1332 19.5762 23.1318 20.6769 25.3911C21.7485 27.6789 19.1418 28.6638 18.186 26.5494L17.2305 24.4062L15.8403 27.4473L15.261 27.1866L16.8828 23.6532L14.1603 17.7162C14.0445 17.745 13.9287 17.7162 13.7838 17.7162C13.7838 17.7162 10.6269 24.8985 9.75781 26.7813C8.91811 28.6638 6.42751 27.5343 7.26721 25.6803C8.10721 23.8269 12.1041 14.8197 12.1041 14.8197L9.13321 14.8683C8.68321 14.8722 8.57551 14.8005 8.54701 14.4633C8.50111 13.5723 8.42251 11.4759 8.62861 10.5042C8.89441 9.2517 9.05311 7.8732 9.93181 7.4631C10.8108 7.053 12.3357 8.1873 12.3357 8.1873C12.5673 7.4343 13.2915 6.9129 14.0736 6.9129ZM15.8691 11.4309V14.907L18.36 20.352L20.8506 14.8779L17.2305 13.3719C17.0565 13.2849 16.9119 13.1691 16.7958 12.9954L15.8691 11.4309Z" fill="#ffffff"/>
</svg>
