<svg width="26" height="26" viewBox="0 0 26 26" fill="none" xmlns="http://www.w3.org/2000/svg">
<path d="M19.9411 18.9375C18.183 17.1796 15.7986 16.192 13.3123 16.192C10.8261 16.192 8.44172 17.1796 6.68359 18.9375M20.4998 2.75501C18.7773 1.76049 16.7302 1.49098 14.8089 2.00576C12.8876 2.52055 11.2494 3.77746 10.2548 5.50001L23.2448 13C24.2394 11.2774 24.5089 9.23031 23.9941 7.30902C23.4793 5.38772 22.2224 3.7496 20.4998 2.75501Z" fill="#ffffff" stroke-width="2" stroke-linecap="round" stroke-linejoin="round"/>
<path d="M18.915 10.5C20.9875 6.91251 21.6963 3.44501 20.5 2.75501C19.3037 2.06501 16.6562 4.41251 14.585 8.00001M16.75 9.25001L13 15.745M1.75 22.0625C2.13912 21.869 2.56562 21.7624 3 21.75C3.48687 21.7398 3.9689 21.8483 4.40447 22.0661C4.84003 22.2838 5.21604 22.6044 5.5 23C5.78396 23.3956 6.15997 23.7162 6.59553 23.9339C7.0311 24.1517 7.51313 24.2602 8 24.25C8.48687 24.2602 8.9689 24.1517 9.40447 23.9339C9.84004 23.7162 10.216 23.3956 10.5 23C10.784 22.6044 11.16 22.2838 11.5955 22.0661C12.0311 21.8483 12.5131 21.7398 13 21.75C13.4869 21.7398 13.9689 21.8483 14.4045 22.0661C14.84 22.2838 15.216 22.6044 15.5 23C15.784 23.3956 16.16 23.7162 16.5955 23.9339C17.0311 24.1517 17.5131 24.2602 18 24.25C18.4869 24.2602 18.9689 24.1517 19.4045 23.9339C19.84 23.7162 20.216 23.3956 20.5 23C20.784 22.6044 21.16 22.2838 21.5955 22.0661C22.0311 21.8483 22.5131 21.7398 23 21.75C23.4344 21.7624 23.8609 21.869 24.25 22.0625" fill="#ffffff" stroke-width="2" stroke-linecap="round" stroke-linejoin="round"/>
</svg>
