<svg width="30" height="30" viewBox="0 0 30 30" fill="none" xmlns="http://www.w3.org/2000/svg">
<path d="M10 25C9.3125 25 8.72375 24.7554 8.23375 24.2663C7.74375 23.7771 7.49917 23.1883 7.5 22.5V20C7.5 19.6458 7.62 19.3492 7.86 19.11C8.1 18.8708 8.39667 18.7508 8.75 18.75H11.25V15.9375C10.5208 15.8958 9.82792 15.7346 9.17125 15.4538C8.51458 15.1729 7.91583 14.7508 7.375 14.1875V12.8125H5.9375L2.9375 9.8125C2.58333 9.45834 2.40625 9.09375 2.40625 8.71875C2.40625 8.34375 2.58333 8.01042 2.9375 7.71875C3.54167 7.19792 4.28625 6.80209 5.17125 6.53125C6.05625 6.26042 6.99917 6.125 8 6.125C8.5625 6.125 9.10917 6.16667 9.64 6.25C10.1708 6.33334 10.7075 6.48959 11.25 6.71875V6.25C11.25 5.89584 11.37 5.59875 11.61 5.35875C11.85 5.11875 12.1467 4.99917 12.5 5H25C25.3542 5 25.6513 5.12 25.8913 5.36C26.1313 5.6 26.2508 5.89667 26.25 6.25V21.25C26.25 22.2917 25.8854 23.1771 25.1562 23.9063C24.4271 24.6354 23.5417 25 22.5 25H10ZM13.75 18.75H20C20.3542 18.75 20.6512 18.87 20.8912 19.11C21.1312 19.35 21.2508 19.6467 21.25 20V21.25C21.25 21.6042 21.37 21.9013 21.61 22.1413C21.85 22.3813 22.1467 22.5008 22.5 22.5C22.8542 22.5 23.1513 22.3804 23.3913 22.1413C23.6313 21.9021 23.7508 21.605 23.75 21.25V7.5H13.75V8.25L20.875 15.375C21.0208 15.5208 21.12 15.6563 21.1725 15.7813C21.225 15.9063 21.2508 16.0625 21.25 16.25C21.25 16.6042 21.13 16.9008 20.89 17.14C20.65 17.3792 20.3533 17.4992 20 17.5C19.8125 17.5 19.6562 17.4742 19.5312 17.4225C19.4062 17.3708 19.2708 17.2717 19.125 17.125L15.9375 13.9375L15.6875 14.1875C15.3958 14.4792 15.0883 14.7396 14.765 14.9688C14.4417 15.1979 14.1033 15.375 13.75 15.5V18.75ZM7 10.3125H9.875V13C10.125 13.1667 10.3854 13.2813 10.6562 13.3438C10.9271 13.4063 11.2083 13.4375 11.5 13.4375C11.9792 13.4375 12.4117 13.3646 12.7975 13.2188C13.1833 13.0729 13.5633 12.8125 13.9375 12.4375L14.1875 12.1875L12.4375 10.4375C11.8333 9.83334 11.1562 9.38 10.4062 9.0775C9.65625 8.775 8.85417 8.62417 8 8.625C7.58333 8.625 7.1875 8.65625 6.8125 8.71875C6.4375 8.78125 6.0625 8.875 5.6875 9L7 10.3125ZM10 22.5H18.9375C18.875 22.3125 18.8279 22.1146 18.7962 21.9063C18.7646 21.6979 18.7492 21.4792 18.75 21.25H10V22.5Z" fill="#ffffff"/>
</svg>
