<svg width="30" height="30" viewBox="0 0 30 30" fill="none" xmlns="http://www.w3.org/2000/svg">
<path d="M15 26.7188C14.7586 26.7176 14.5212 26.6572 14.3086 26.543C13.8047 26.25 1.875 19.4766 1.875 10.7813C1.87338 9.25717 2.33613 7.76875 3.20162 6.51425C4.06711 5.25974 5.29426 4.29869 6.71962 3.75909C8.14499 3.21948 9.70093 3.12694 11.1802 3.49378C12.6595 3.86062 13.9919 4.66944 15 5.81251C16.0081 4.66944 17.3405 3.86062 18.8198 3.49378C20.2991 3.12694 21.855 3.21948 23.2804 3.75909C24.7058 4.29869 25.9329 5.25974 26.7984 6.51425C27.6639 7.76875 28.1266 9.25717 28.125 10.7813C28.125 19.4766 16.1953 26.25 15.6914 26.543C15.4788 26.6572 15.2414 26.7176 15 26.7188ZM9.375 6.09376C8.1318 6.09376 6.93952 6.58762 6.06044 7.46669C5.18136 8.34577 4.6875 9.53805 4.6875 10.7813C4.6875 16.7813 12.5859 22.1719 15 23.6719C17.4141 22.1719 25.3125 16.7813 25.3125 10.7813C25.3114 9.69862 24.9356 8.64974 24.2489 7.81275C23.5622 6.97576 22.607 6.40227 21.5455 6.18968C20.4839 5.9771 19.3815 6.13852 18.4254 6.64654C17.4694 7.15455 16.7187 7.97784 16.3008 8.97657C16.1948 9.23449 16.0146 9.45509 15.783 9.61035C15.5514 9.7656 15.2788 9.84849 15 9.84849C14.7212 9.84849 14.4486 9.7656 14.217 9.61035C13.9854 9.45509 13.8052 9.23449 13.6992 8.97657C13.3445 8.12217 12.7443 7.39221 11.9745 6.87905C11.2048 6.36589 10.3001 6.0926 9.375 6.09376Z" fill="#ffffff"/>
</svg>
