<svg width="23" height="23" viewBox="0 0 23 23" fill="none" xmlns="http://www.w3.org/2000/svg">
<path d="M2.78223 19.362V6.37985H6.49143V2.67065H15.7644V10.0891H19.4736V19.362H12.0552V15.6529H10.2006V19.362H2.78223ZM4.63683 17.5075H6.49143V15.6529H4.63683V17.5075ZM4.63683 13.7983H6.49143V11.9437H4.63683V13.7983ZM4.63683 10.0891H6.49143V8.23445H4.63683V10.0891ZM8.34602 13.7983H10.2006V11.9437H8.34602V13.7983ZM8.34602 10.0891H10.2006V8.23445H8.34602V10.0891ZM8.34602 6.37985H10.2006V4.52525H8.34602V6.37985ZM12.0552 13.7983H13.9098V11.9437H12.0552V13.7983ZM12.0552 10.0891H13.9098V8.23445H12.0552V10.0891ZM12.0552 6.37985H13.9098V4.52525H12.0552V6.37985ZM15.7644 17.5075H17.619V15.6529H15.7644V17.5075ZM15.7644 13.7983H17.619V11.9437H15.7644V13.7983Z" fill="#555555"/>
</svg>
