<svg width="24" height="24" viewBox="0 0 24 24" fill="none" xmlns="http://www.w3.org/2000/svg">
<path d="M8.10007 13.34L10.9301 10.51L3.91007 3.49996C3.16092 4.25127 2.74023 5.26897 2.74023 6.32996C2.74023 7.39095 3.16092 8.40865 3.91007 9.15996L8.10007 13.34ZM14.8801 11.53C16.4101 12.24 18.5601 11.74 20.1501 10.15C22.0601 8.23996 22.4301 5.49996 20.9601 4.02996C19.5001 2.56996 16.7601 2.92996 14.8401 4.83996C13.2501 6.42996 12.7501 8.57996 13.4601 10.11L3.70007 19.87L5.11007 21.28L12.0001 14.41L18.8801 21.29L20.2901 19.88L13.4101 13L14.8801 11.53Z" fill="#555555"/>
</svg>
