<svg width="24" height="24" viewBox="0 0 24 24" fill="none" xmlns="http://www.w3.org/2000/svg">
<path d="M3 20C2.71667 20 2.47933 19.904 2.288 19.712C2.096 19.5207 2 19.2833 2 19V10.425C2 10.2917 2.025 10.1623 2.075 10.037C2.125 9.91233 2.2 9.8 2.3 9.7L7.3 4.7C7.4 4.6 7.50833 4.529 7.625 4.487C7.74167 4.44567 7.86667 4.425 8 4.425C8.13333 4.425 8.25833 4.44567 8.375 4.487C8.49167 4.529 8.6 4.6 8.7 4.7L13.7 9.7C13.8 9.8 13.875 9.91233 13.925 10.037C13.975 10.1623 14 10.2917 14 10.425V19C14 19.2833 13.9043 19.5207 13.713 19.712C13.521 19.904 13.2833 20 13 20H3ZM4 18H7V16C7 15.7167 7.09567 15.479 7.287 15.287C7.479 15.0957 7.71667 15 8 15C8.28333 15 8.521 15.0957 8.713 15.287C8.90433 15.479 9 15.7167 9 16V18H12V10.825L8 6.825L4 10.825V18ZM8 13C7.71667 13 7.479 12.904 7.287 12.712C7.09567 12.5207 7 12.2833 7 12C7 11.7167 7.09567 11.479 7.287 11.287C7.479 11.0957 7.71667 11 8 11C8.28333 11 8.521 11.0957 8.713 11.287C8.90433 11.479 9 11.7167 9 12C9 12.2833 8.90433 12.5207 8.713 12.712C8.521 12.904 8.28333 13 8 13ZM17 20C16.7167 20 16.4793 19.904 16.288 19.712C16.096 19.5207 16 19.2833 16 19V9.375C16 9.34167 15.95 9.225 15.85 9.025L12.525 5.7C12.2083 5.38333 12.1333 5.02067 12.3 4.612C12.4667 4.204 12.775 4 13.225 4C13.3583 4 13.4917 4.029 13.625 4.087C13.7583 4.14567 13.8667 4.21667 13.95 4.3L17.7 8.05C17.8 8.15 17.875 8.26233 17.925 8.387C17.975 8.51233 18 8.64167 18 8.775V19C18 19.2833 17.904 19.5207 17.712 19.712C17.5207 19.904 17.2833 20 17 20ZM21 20C20.7167 20 20.4793 19.904 20.288 19.712C20.096 19.5207 20 19.2833 20 19V7.725C20 7.69167 19.95 7.575 19.85 7.375L18.175 5.7C17.8583 5.38333 17.7833 5.02067 17.95 4.612C18.1167 4.204 18.425 4 18.875 4C19.0083 4 19.1417 4.029 19.275 4.087C19.4083 4.14567 19.5167 4.21667 19.6 4.3L21.7 6.4C21.8 6.5 21.875 6.61267 21.925 6.738C21.975 6.86267 22 6.99167 22 7.125V19C22 19.2833 21.904 19.5207 21.712 19.712C21.5207 19.904 21.2833 20 21 20Z" fill="#555555"/>
</svg>
